<svg fill="none" height="32" width="32" xmlns="http://www.w3.org/2000/svg" xmlns:xlink="http://www.w3.org/1999/xlink"><clipPath id="a"><path d="m0 0h32v32h-32z"/></clipPath><g clip-path="url(#a)"><path d="m10.133 26.134a2.667 2.667 0 1 0 0-5.333 2.667 2.667 0 0 0 0 5.333zm-4.541-5.465c.175-.284.376-.55.599-.794m.975-.842a5.34 5.34 0 0 1 4.403-.705" stroke="#346739" stroke-miterlimit="10" stroke-width="1.5"/><path d="m10.666 22.934h-1.066v1.066h1.066z" fill="#346739"/><g stroke="#346739" stroke-miterlimit="10" stroke-width="1.5"><path d="m12.746 22.932h2.205m-11.219 3.201h12.2m-13.266 0h-1.066m27.2-20.268h-14.832a3.591 3.591 0 0 0 -2.78 1.318l-3.722 4.549-5.035 2.938a2.75 2.75 0 0 0 -1.365 2.375v4.264c0 .897.726 1.623 1.622 1.623h4.832m22.347-17.067h1.067m0 4.801h-1.067m-1.067 0h-4.267"/><path d="m5.333 12.977v3.022a1.6 1.6 0 0 1 -1.6 1.6h-2.667m16.001-6.399v-2.667a.533.533 0 0 0 -.534-.533h-2.565c-.437 0-.85.196-1.128.534l-3.189 3.898a.225.225 0 0 0 .174.368h7.242m-.001-2.134v4.267m.534-11.201h-1.067m18.934 0h-17.067m-.142 12.455c.251-.168.513-.322.785-.459m1.388-.534a7.467 7.467 0 1 1 -3.497 2.118"/><path d="m20.134 21.082-1.295-.648a.312.312 0 0 1 0-.557l3.421-1.711a.312.312 0 0 1 .277 0l3.424 1.711a.311.311 0 0 1 0 .556l-3.423 1.712a.312.312 0 0 1 -.279 0l-1.035-.519"/><path d="m26.133 20.154v4.667c0 .122-.07.227-.172.278l-3.423 1.712a.31.31 0 0 1 -.279 0l-3.419-1.711a.312.312 0 0 1 -.173-.279v-4.667m3.733 2.024v4.666"/></g></g></svg>