<svg fill="none" height="32" width="32" xmlns="http://www.w3.org/2000/svg"><path d="m27.787 21.745a13.826 13.826 0 0 0 1.013-5.213c0-1.26-.168-2.48-.482-3.64m-1.697 11.108c.221-.345.427-.701.618-1.066m-2.243 3.141c.284-.3.554-.611.81-.934m-3.152 2.912c.395-.265.776-.55 1.14-.854m-20.269-18.551a13.793 13.793 0 0 0 -2.418 6.818m4.611-9.294c-.424.377-.824.78-1.198 1.205m25.6 4.225a16.12 16.12 0 0 0 -5.284-7.606m5.774 9.812c-.054-.306-.116-.61-.188-.915m-13.436-10.076a14.006 14.006 0 0 0 -6.242.493m9.938.6a13.79 13.79 0 0 0 -2.471-.855" stroke="#346739" stroke-miterlimit="10" stroke-width="1.5"/><path d="m5.334 21.334h-1.066v1.067h1.066z" fill="#346739"/><g stroke="#346739" stroke-miterlimit="10" stroke-width="1.5"><path d="m21.662 8.33-.61-.61a4.506 4.506 0 0 0 -3.884-1.265m-1.264.395c-.45.217-.864.51-1.225.87l-.609.61m-1.004 18.07 1.026-1.026c.505-.505.88-.766 1.374-.84 1.158-.176 2.054-.455 2.667-1.067l6.367-6.368a1.932 1.932 0 0 0 0-2.732l-5.269-5.267a1.932 1.932 0 0 0 -2.73 0l-5.235 5.234a.233.233 0 0 1 -.168.067.23.23 0 0 1 -.224-.187l-.772-3.862a1.6 1.6 0 0 0 -3.149.573l1.013 6.264a2.575 2.575 0 0 1 -.721 2.233l-.579.578"/><path d="m11.946 30.72 1.355-1.355a1.932 1.932 0 0 0 0-2.732l-6.868-6.868a1.933 1.933 0 0 0 -2.732 0l-1.355 1.355"/></g></svg>