<svg fill="none" height="32" width="32" xmlns="http://www.w3.org/2000/svg"><path d="m24.533 30.4h-21.333a1.6 1.6 0 0 1 -1.6-1.6v-11.733a1.6 1.6 0 0 1 1.6-1.6h21.333a1.6 1.6 0 0 1 1.6 1.6v11.733a1.6 1.6 0 0 1 -1.6 1.6zm-5.333-14.935v-4.8a5.333 5.333 0 1 0 -10.667 0v4.8" stroke="#346739" stroke-miterlimit="10" stroke-width="1.5"/><path d="m22.399 15.466v-4.8a8.533 8.533 0 0 0 -8.534-8.533 8.533 8.533 0 0 0 -8.533 8.533v4.8m22.4-13.866v2.666m0 2.134v2.667m3.733-3.735h-2.665m-2.133 0h-2.667m-16.533 12.801v2.666m0 2.135v2.666m3.733-3.733h-2.667m-2.133 0h-2.669" stroke="#346739" stroke-miterlimit="10" stroke-width="1.5"/><path d="m24.534 17.066h-1.067v1.067h1.067zm0 2.134h-1.067v1.066h1.067v-1.067zm0 2.134h-1.067v1.067h1.067z" fill="#346739"/><path d="m28.268 12.8v6.934m0 1.066v1.6" stroke="#346739" stroke-miterlimit="10" stroke-width="1.5"/></svg>