<svg height="18" viewBox="0 0 18 18" width="18" xmlns="http://www.w3.org/2000/svg"><g style="stroke:#333;stroke-width:1.411765;fill:none;fill-rule:evenodd;stroke-linecap:round;stroke-linejoin:round" transform="translate(1 1.429086)"><path d="m10.2063705 5.41198708c.5116196-.98279999.995516-2.32591606 1.1656358-4.06887101.0693081-.71602117-.4649942-1.34311607-1.1524043-1.34311607-.5431233 0-1.02386932.3912756-1.12972166.94722948-.22304599 1.17250937-.92431772 3.13810936-3.13461531 4.15055144-.52107073.23845415-.8417781.79638417-.8417781 1.39054342v7.31566806c0 .8510573.65905681 1.5400713 1.47311168 1.5400713h4.77721669c1.5228875 0 2.8340703-1.1244234 3.131465-2.6862322l.8884035-4.66961737c.2532895-1.33323537-.7220641-2.57622705-2.0225357-2.57622705z"/><path d="m0 15.3442613h2.98969842v-10.63953451h-2.98969842z" fill="#0db259"/></g></svg>