<svg height="16" viewBox="0 0 25 16" width="25" xmlns="http://www.w3.org/2000/svg"><g fill="none" fill-rule="evenodd" transform="translate(1 1)"><path d="m21.9959632 11.5566038.8410189-4.83814468-3.6938868-4.54977987h-3.8472925l-1.5756259 9.38799055z" fill="#0db259"/><g stroke="#333" stroke-linecap="round" stroke-linejoin="round" stroke-width="1.5"><path d="m2.00852925 0h13.66438675l-2.0088113 11.5566038"/><path d="m8.44045974 11.5566038h6.91206196"/><path d="m20.0539821 11.5566038h1.9419811l.8410189-4.83814468-3.6938868-4.54977987h-3.8472925"/><path d="m8.40406981 11.5566038c-.22696226 1.3068868-1.45550943 2.3663522-2.74394339 2.3663522-1.28821699 0-2.14811321-1.0594654-1.92115095-2.3663522.22717925-1.3068868 1.45550944-2.36635223 2.7439434-2.36635223 1.28821698 0 2.14833019 1.05946543 1.92115094 2.36635223z"/><path d="m7.2496434 3.41175157h-5.91056604"/><path d="m6.56153113 7.26395283h-5.91056604"/><path d="m3.72773585 11.5566038h-3.72773585"/><path d="m20.0539821 11.5566038c-.2271793 1.3068868-1.4555095 2.3663522-2.7439434 2.3663522-1.288217 0-2.1483302-1.0594654-1.921151-2.3663522.2271793-1.3068868 1.4555095-2.36635223 2.7439434-2.36635223 1.288217 0 2.1483302 1.05946543 1.921151 2.36635223z" fill="#fff"/></g></g></svg>