<svg viewBox="0 0 205.72 36.2" xmlns="http://www.w3.org/2000/svg"><path d="M115.74 3.8L97.92 35.09h5.5L119.1 7.45a.52.52 0 01.9 0l15.93 27.64h11.19L128.76 3.72a7.52 7.52 0 00-13.02.08zM87.29 25.87a.54.54 0 01-.92.39L61.74 1.87a6 6 0 00-10.16 4.24v29h4.59V10.27a.55.55 0 01.93-.39l24.61 24.57a6 6 0 0010.18-4.23V1h-4.6zM186.32 1h-31v34.09h10.18v-8.8h20.8a12.63 12.63 0 000-25.25zm-5.46 21h-15.34V5.29h15.34a8.38 8.38 0 110 16.76zM39.28 26.34L13.84 6.56a.51.51 0 01.33-.92h26.7V1H5.11a4.9 4.9 0 00-3.18 8.81l25.72 19.76a.51.51 0 01-.33.92H1v4.6h35.08a4.9 4.9 0 003.2-8.75zM205.72 4.44A3.39 3.39 0 11202.34 1a3.41 3.41 0 013.38 3.44zm-.57 0a2.82 2.82 0 10-2.83 2.81 2.79 2.79 0 002.83-2.81zm-2.08.47l.78 1.09h-.66l-.63-1h-.94v1h-.57V2.66h1.36c.88 0 1.37.42 1.37 1.16a1.09 1.09 0 01-.71 1.09zm-.66-.37c.52 0 .83-.26.83-.71s-.31-.69-.83-.69h-.79v1.4z" fill="#CCDBBB"/></svg>