<svg id="10015.io" viewBox="0 0 1584 396" xmlns="http://www.w3.org/2000/svg"><defs><pattern id="svg-pattern" x="0" y="0" width="60" height="60" patternUnits="userSpaceOnUse" patternTransform="translate(27, 27) rotate(65) skewX(0)"><svg width="33" height="33" viewBox="0 0 100 100"><g fill="#9bcc79" opacity="0.3"><path d="M88.3721 50C88.3721 71.1923 71.1923 88.3721 50 88.3721C28.8077 88.3721 11.6279 71.1923 11.6279 50C11.6279 28.8077 28.8077 11.6279 50 11.6279C71.1923 11.6279 88.3721 28.8077 88.3721 50ZM100 50C100 77.6142 77.6142 100 50 100C22.3858 100 0 77.6142 0 50C0 22.3858 22.3858 0 50 0C77.6142 0 100 22.3858 100 50Z" fill-rule="evenodd" clip-rule="evenodd"></path></g></svg></pattern></defs><rect x="0" y="0" width="100%" height="100%" fill="#b4eb8e"></rect><rect x="0" y="0" width="100%" height="100%" fill="url(#svg-pattern)"></rect></svg>